<svg xmlns="http://www.w3.org/2000/svg" width="30" height="30" viewBox="0 0 30 30"><defs><clipPath id="a"><path fill="#fff" d="M619 2715a7 7 0 1 1 0 14 7 7 0 0 1 0-14z"/></clipPath><clipPath id="b"><path fill="#fff" d="M619 2731c8.28 0 15 2.69 15 6v8h-30v-8c0-3.31 6.72-6 15-6z"/></clipPath></defs><path fill="none" stroke="#f93f4a" stroke-miterlimit="50" stroke-width="6" d="M619 2715a7 7 0 1 1 0 14 7 7 0 0 1 0-14z" clip-path="url(&quot;#a&quot;)" transform="translate(-604 -2715)"/><path fill="none" stroke="#f93f4a" stroke-miterlimit="50" stroke-width="6" d="M619 2731c8.28 0 15 2.69 15 6v8h-30v-8c0-3.31 6.72-6 15-6z" clip-path="url(&quot;#b&quot;)" transform="translate(-604 -2715)"/></svg>