<svg xmlns="http://www.w3.org/2000/svg" width="279.4" height="167.5" viewBox="0 0 279.4 167.5"><defs><clipPath id="a"><path fill="#fff" d="M598 1445v-40h13v40z"/></clipPath></defs><path fill="none" stroke="#6e727a" stroke-miterlimit="50" stroke-width="3" d="M276.5 164.2L217.63 14.23"/><path fill="#f93f4a" d="M49.4 163.2l58.86-149.97"/><path fill="none" stroke="#6e727a" stroke-miterlimit="50" stroke-width="3" d="M49.4 163.2l58.86-149.97"/><path fill="#f93f4a" d="M1.4 163.2L60.26 13.23"/><path fill="none" stroke="#6e727a" stroke-miterlimit="50" stroke-width="3" d="M1.4 163.2L60.26 13.23"/><path fill="#f93f4a" d="M60.4 11h160"/><path fill="none" stroke="#6e727a" stroke-miterlimit="50" stroke-width="3" d="M60.4 11h160"/><path fill="none" stroke="#f93f4a" stroke-miterlimit="50" stroke-width="3" d="M140.4 11h80"/><path fill="#f93f4a" d="M.4 163h161"/><path fill="none" stroke="#6e727a" stroke-miterlimit="50" stroke-width="3" d="M.4 163h161"/><path fill="#f93f4a" d="M146.4 147h-75"/><path fill="none" stroke="#6e727a" stroke-miterlimit="50" stroke-width="3" d="M146.4 147h-75"/><path fill="#f93f4a" d="M141.4 109h-55"/><path fill="none" stroke="#6e727a" stroke-miterlimit="50" stroke-width="3" d="M141.4 109h-55"/><path fill="#f93f4a" d="M134.4 128h-56"/><path fill="none" stroke="#6e727a" stroke-miterlimit="50" stroke-width="3" d="M134.4 128h-56"/><path fill="#f93f4a" d="M137.4 71h-37"/><path fill="none" stroke="#6e727a" stroke-miterlimit="50" stroke-width="3" d="M137.4 71h-37"/><path fill="#f93f4a" d="M131.4 90h-38"/><path fill="none" stroke="#6e727a" stroke-miterlimit="50" stroke-width="3" d="M131.4 90h-38M222.4 71l37 93M218.4 111l20 53M133.4 33h-18"/><path fill="#f93f4a" d="M126.4 52h-18"/><path fill="none" stroke="#6e727a" stroke-miterlimit="50" stroke-width="3" d="M126.4 52h-18"/><path fill="none" stroke="#f93f4a" stroke-miterlimit="50" stroke-width="3" d="M158.36 164.2L218.4 11M122.4 58l17.97-45.17M130.4 134l47.97-121.17M138.5 162.8l58.87-149.97M126.4 97l32.97-84.17"/><path fill="none" stroke="#6e727a" stroke-miterlimit="50" stroke-width="3" d="M186.4 163l92.9-.2"/><path fill="#fff" d="M73.4 40V0h13v40z"/><path fill="none" stroke="#6e727a" stroke-miterlimit="50" stroke-width="6" d="M598 1445v-40h13v40z" clip-path="url(&quot;#a&quot;)" transform="translate(-524.6 -1405)"/><path fill="none" stroke="#f93f4a" stroke-miterlimit="50" stroke-width="3" d="M122.4 57h20M127.4 95h19M130.4 133h20M161.4 166h-23"/></svg>