<svg xmlns="http://www.w3.org/2000/svg" width="90.06" height="88.5" viewBox="0 0 90.06 88.5"><defs><clipPath id="a"><path fill="#fff" d="M1311.9 1189c.07 0 9.9 11.63 9.9 17.1a9.9 9.9 0 1 1-19.8 0c0-5.47 9.89-17.1 9.9-17.1z"/></clipPath><clipPath id="b"><path fill="#fff" d="M1347.5 1189c.07 0 9.9 11.63 9.9 17.1a9.9 9.9 0 1 1-19.8 0c0-5.47 9.89-17.1 9.9-17.1z"/></clipPath><clipPath id="c"><path fill="#fff" d="M1382.1 1189c.07 0 9.9 11.63 9.9 17.1a9.9 9.9 0 1 1-19.8 0c0-5.47 9.89-17.1 9.9-17.1z"/></clipPath></defs><path fill="none" stroke="#6e727a" stroke-miterlimit="50" stroke-width="6" d="M1311.9 1189c.07 0 9.9 11.63 9.9 17.1a9.9 9.9 0 1 1-19.8 0c0-5.47 9.89-17.1 9.9-17.1z" clip-path="url(&quot;#a&quot;)" transform="translate(-1301.94 -1189)"/><path fill="none" stroke="#6e727a" stroke-miterlimit="50" stroke-width="6" d="M1347.5 1189c.07 0 9.9 11.63 9.9 17.1a9.9 9.9 0 1 1-19.8 0c0-5.47 9.89-17.1 9.9-17.1z" clip-path="url(&quot;#b&quot;)" transform="translate(-1301.94 -1189)"/><path fill="none" stroke="#6e727a" stroke-miterlimit="50" stroke-width="6" d="M1382.1 1189c.07 0 9.9 11.63 9.9 17.1a9.9 9.9 0 1 1-19.8 0c0-5.47 9.89-17.1 9.9-17.1z" clip-path="url(&quot;#c&quot;)" transform="translate(-1301.94 -1189)"/><path fill="none" stroke="#f93f4a" stroke-miterlimit="50" stroke-width="3" d="M90.06 48h-90M90.06 68h-90M1.06 65l20-20M18.06 65l20-20M35.06 65l20-20M52.06 65l20-20M68.06 65l20-20M.06 37h90"/><path fill="none" stroke="#6e727a" stroke-miterlimit="50" stroke-width="3" d="M.06 87h3M8.06 77h2.86M16.06 87h3M25.06 77h2.86M34.06 87h2.86M43.06 77h2.86M52.06 87h2.86M61.06 77h2.86M70.06 87h3M78.06 77h2.86M87.06 87h2.86"/></svg>