<svg xmlns="http://www.w3.org/2000/svg" width="91.5" height="93" viewBox="0 0 91.5 93"><defs><clipPath id="a"><path fill="#fff" d="M1089.5 1552a9.5 9.5 0 1 1 0 19 9.5 9.5 0 0 1 0-19z"/></clipPath><clipPath id="b"><path fill="#fff" d="M1089.5 1524a9.5 9.5 0 1 1 0 19 9.5 9.5 0 0 1 0-19z"/></clipPath><clipPath id="c"><path fill="#fff" d="M1009 1527v-12h70v12z"/></clipPath><clipPath id="d"><path fill="#fff" d="M1038 1535v-54h12v54z"/></clipPath><clipPath id="e"><path fill="#fff" d="M1067 1536v-54h12v54z"/></clipPath><clipPath id="f"><path fill="#fff" d="M1009 1562v-81h12v81z"/></clipPath><clipPath id="g"><path fill="#fff" d="M1041 1537v-8h6v8z"/></clipPath><clipPath id="h"><path fill="#fff" d="M1070 1537v-8h6v8z"/></clipPath></defs><path fill="none" stroke="#6e727a" stroke-miterlimit="50" stroke-width="3" d="M80.5 91.5h-50v-32h50"/><path fill="none" stroke="#6e727a" stroke-miterlimit="50" stroke-width="6" d="M1089.5 1552a9.5 9.5 0 1 1 0 19 9.5 9.5 0 0 1 0-19z" clip-path="url(&quot;#a&quot;)" transform="translate(-1007.5 -1479.5)"/><path fill="none" stroke="#6e727a" stroke-miterlimit="50" stroke-width="6" d="M1089.5 1524a9.5 9.5 0 1 1 0 19 9.5 9.5 0 0 1 0-19z" clip-path="url(&quot;#b&quot;)" transform="translate(-1007.5 -1479.5)"/><path fill="none" stroke="#6e727a" stroke-miterlimit="50" stroke-width="3" d="M80.5 75.5v-31M88.5 82.5v-29"/><path fill="#fff" d="M70.5 88.5v-26h10v26zM70.5 59.5v-18h10v18zM83.5 71.5v-18h5v18z"/><path fill="none" stroke="#f93f4a" stroke-miterlimit="50" stroke-width="3" d="M26.5 82.5h-25v-81h70v55M4.5 10.5h64"/><path fill="none" stroke="#f93f4a" stroke-miterlimit="50" stroke-width="6" d="M1009 1527v-12h70v12z" clip-path="url(&quot;#c&quot;)" transform="translate(-1007.5 -1479.5)"/><path fill="none" stroke="#f93f4a" stroke-miterlimit="50" stroke-width="6" d="M1038 1535v-54h12v54z" clip-path="url(&quot;#d&quot;)" transform="translate(-1007.5 -1479.5)"/><path fill="none" stroke="#f93f4a" stroke-miterlimit="50" stroke-width="6" d="M1067 1536v-54h12v54z" clip-path="url(&quot;#e&quot;)" transform="translate(-1007.5 -1479.5)"/><path fill="none" stroke="#f93f4a" stroke-miterlimit="50" stroke-width="6" d="M1009 1562v-81h12v81z" clip-path="url(&quot;#f&quot;)" transform="translate(-1007.5 -1479.5)"/><path fill="none" stroke="#f93f4a" stroke-miterlimit="50" stroke-width="3" d="M4.5 70.5h22"/><path fill="none" stroke="#fff" stroke-miterlimit="50" stroke-width="6" d="M1041 1537v-8h6v8z" clip-path="url(&quot;#g&quot;)" transform="translate(-1007.5 -1479.5)"/><path fill="none" stroke="#fff" stroke-miterlimit="50" stroke-width="6" d="M1070 1537v-8h6v8z" clip-path="url(&quot;#h&quot;)" transform="translate(-1007.5 -1479.5)"/><path fill="none" stroke="#6e727a" stroke-miterlimit="50" stroke-width="3" d="M41.5 67.5h3M41.5 79.5h3M55.5 67.5h3M55.5 79.5h3M48.5 73.5h3M69.5 67.5h3M69.5 79.5h3M62.5 73.5h3"/></svg>