<svg xmlns="http://www.w3.org/2000/svg" width="88.7" height="92" viewBox="0 0 88.7 92"><defs><clipPath id="a"><path fill="#fff" d="M1348 1481l-36 54 11 4-21 32h13l23-37-10-4 33-49z"/></clipPath></defs><path fill="none" stroke="#f93f4a" stroke-miterlimit="50" stroke-width="3" d="M56 38V3H3v75h31"/><path fill="none" stroke="#f93f4a" stroke-miterlimit="50" stroke-width="6" d="M1348 1481l-36 54 11 4-21 32h13l23-37-10-4 33-49z" clip-path="url(&quot;#a&quot;)" transform="translate(-1302 -1481)"/><path fill="none" stroke="#6e727a" stroke-miterlimit="50" stroke-width="3" d="M50 68H40v19h36V68H66"/><path fill="none" stroke="#6e727a" stroke-miterlimit="50" stroke-width="3" d="M63 75H53v-9l-9-22s14.23-6.36 28 0l-9 22v5M82 77s5 .23 5-4V31s1.34-6-6-6H70M65 28v-9M65 25H47"/><path fill="#fff" d="M0 92V81h24v11z"/></svg>